Coordinates
version=1
nRows=7
nColumns=40
inDegrees=yes

Units are S.I. units (second, meters, Newtons, ...)
Angles are in degrees.

endheader
time	pelvis_tilt	pelvis_list	pelvis_rotation	pelvis_tx	pelvis_ty	pelvis_tz	hip_flexion_r	hip_adduction_r	hip_rotation_r	knee_angle_r	knee_angle_r_beta	ankle_angle_r	subtalar_angle_r	mtp_angle_r	hip_flexion_l	hip_adduction_l	hip_rotation_l	knee_angle_l	knee_angle_l_beta	ankle_angle_l	subtalar_angle_l	mtp_angle_l	lumbar_extension	lumbar_bending	lumbar_rotation	arm_flex_r	arm_add_r	arm_rot_r	elbow_flex_r	pro_sup_r	wrist_flex_r	wrist_dev_r	arm_flex_l	arm_add_l	arm_rot_l	elbow_flex_l	pro_sup_l	wrist_flex_l	wrist_dev_l
     34.08514286	     -5.05468649	     -3.32339747	     -2.70493606	      0.90541681	      0.91409815	      0.41092408	     28.57097998	     -6.34771500	     -2.79512191	     68.84854080	     68.84854080	      1.84013818	    -18.76608208	      8.45052448	     19.84376746	     -0.66379890	     -3.99487067	     32.00527209	     32.00527209	     20.36317857	    -17.53968334	      9.96974717	    -11.74446584	      7.03266154	      1.99948910	      0.13719982	    -12.59075076	    -18.76410907	     20.89728003	     46.92002741	      0.00000000	      0.00000000	     26.17178952	    -19.66709248	      9.30018666	     54.13001205	     46.42174034	      0.00000000	      0.00000000
     34.10528571	     -5.18876076	     -3.24379263	     -3.34016057	      0.90406238	      0.91646049	      0.41058587	     29.91061072	     -5.97969649	     -2.53842816	     67.88024210	     67.88024210	      2.49693783	    -18.73232577	      8.45828790	     18.78637354	     -0.67665041	     -4.77698108	     30.50290918	     30.50290918	     20.21128848	    -17.07823985	      9.99595485	    -11.65577680	      7.15115279	      1.66263853	     -2.30317234	    -12.30131276	    -18.74197380	     20.33864161	     46.91982444	      0.00000000	      0.00000000	     27.42864891	    -20.33579463	      8.57899409	     55.09360174	     46.50772540	      0.00000000	      0.00000000
     34.12542857	     -5.30924961	     -3.30290624	     -4.01619760	      0.90262430	      0.91894510	      0.41074302	     30.93853954	     -5.42225290	     -2.35650785	     66.05425227	     66.05425227	      3.19890660	    -18.53078734	      7.62254316	     17.64860146	     -0.87920114	     -5.65860310	     28.83922512	     28.83922512	     19.33591638	    -16.73026426	      8.26656943	    -11.74572596	      7.37573075	      1.58580527	     -5.49186006	    -12.07551587	    -18.40086367	     22.18452951	     46.77998489	      0.00000000	      0.00000000	     28.25628702	    -20.67544484	      6.14281654	     57.60495959	     46.76923344	      0.00000000	      0.00000000
     34.14557143	     -5.40501024	     -3.30306686	     -4.73487163	      0.90114316	      0.92161233	      0.41124039	     31.66472496	     -4.86966763	     -2.09318002	     63.42398807	     63.42398807	      4.09782176	    -18.12621171	      6.78357821	     16.44483630	     -0.99063435	     -6.55186306	     27.13158636	     27.13158636	     19.02277532	    -16.17160672	      8.29349816	    -11.80929589	      7.50937137	      1.64890175	     -7.61832531	    -11.92346153	    -18.23347698	     21.87694885	     46.76088133	      0.00000000	      0.00000000	     29.64635515	    -21.22234665	      5.38430721	     58.88875667	     46.86244611	      0.00000000	      0.00000000
     34.16571429	     -5.63555835	     -3.37418766	     -5.45221221	      0.89962358	      0.92393363	      0.41204664	     32.21114275	     -4.30820104	     -1.97507542	     59.97082941	     59.97082941	      4.54111067	    -17.47323735	      4.72439995	     15.38962850	     -1.19480426	     -7.45356683	     25.43756379	     25.43756379	     18.64276227	    -15.52359520	      7.82156588	    -11.73983127	      7.67930760	      1.67531771	     -9.82755097	    -11.78935331	    -18.09063655	     22.50339852	     46.70040135	      0.00000000	      0.00000000	     30.71880763	    -21.74032408	      4.24736390	     60.74668556	     46.99229137	      0.00000000	      0.00000000
     34.18585714	     -5.86922245	     -3.49414059	     -6.18013490	      0.89808162	      0.92593730	      0.41318775	     32.47744122	     -3.73326757	     -1.95590199	     55.89986909	     55.89986909	      5.24619713	    -16.34434300	      3.32700924	     14.39836640	     -1.43777362	     -8.30779870	     23.87326128	     23.87326128	     18.38845799	    -14.92498043	      7.69246641	    -11.62797803	      7.89146569	      1.54443135	    -11.48871962	    -11.74143193	    -18.04226470	     22.84482343	     46.66537803	      0.00000000	      0.00000000	     31.85734524	    -22.47844260	      3.42662831	     62.03825883	     47.08473988	      0.00000000	      0.00000000
     34.20600000	     -6.17144115	     -3.53504340	     -6.87648600	      0.89647764	      0.92731018	      0.41440101	     32.35137982	     -3.36305582	     -2.13722722	     50.78208700	     50.78208700	      3.66740034	    -15.81664754	     -3.91794644	     13.57239343	     -1.59980165	     -9.17409319	     22.40884356	     22.40884356	     17.55302960	    -14.60740200	      6.08942085	    -11.53367816	      8.06081779	      1.35106440	    -13.76412815	    -11.82759439	    -16.58505791	     25.63108984	     46.40849302	      0.00000000	      0.00000000	     32.52542916	    -23.05329657	      1.59453462	     64.41951193	     47.29169444	      0.00000000	      0.00000000
